<?xml version="1.0" standalone="no"?>
<!DOCTYPE svg PUBLIC "-//W3C//DTD SVG 20010904//EN"
"http://www.w3.org/TR/2001/REC-SVG-20010904/DTD/svg10.dtd">
<svg version="1.0" xmlns="http://www.w3.org/2000/svg"
width="1080.000000pt" height="1080.000000pt" viewBox="0 0 1080.000000 1080.000000"
preserveAspectRatio="xMidYMid meet">

<g transform="translate(0.000000,1080.000000) scale(0.100000,-0.100000)"
fill="#b7410e" stroke="none">
<path d="M5349 7190 c-9 -5 -32 -33 -50 -62 -37 -60 -78 -108 -92 -108 -5 0
-42 32 -81 70 -73 70 -102 83 -126 55 -6 -7 -26 -51 -44 -97 -24 -61 -38 -84
-52 -86 -11 -2 -57 21 -103 53 -46 30 -90 55 -97 55 -20 0 -40 -46 -53 -124
-21 -122 -27 -124 -151 -71 -94 40 -93 40 -115 19 -14 -14 -16 -35 -14 -116 4
-127 2 -128 -126 -103 -95 19 -121 17 -132 -11 -5 -13 12 -109 33 -185 10 -36
-22 -49 -121 -49 -51 0 -100 -3 -109 -6 -25 -10 -19 -48 21 -140 32 -75 35
-86 22 -99 -15 -15 -132 -44 -177 -45 -14 0 -27 -9 -33 -24 -12 -26 -2 -52 58
-143 19 -28 33 -60 31 -70 -2 -10 -24 -28 -53 -41 -115 -53 -140 -68 -143 -85
-3 -12 21 -44 67 -92 39 -40 71 -80 71 -89 0 -16 -33 -45 -115 -98 -42 -27
-50 -38 -50 -63 0 -26 10 -36 83 -84 57 -37 82 -60 82 -73 0 -12 -31 -51 -70
-92 -87 -88 -87 -101 -5 -139 113 -52 130 -62 133 -80 2 -10 -19 -53 -47 -96
-76 -115 -71 -127 68 -151 40 -8 83 -21 94 -30 l21 -17 -37 -86 c-40 -93 -46
-131 -21 -141 9 -3 52 -6 97 -6 45 0 92 -3 105 -6 27 -8 28 -29 6 -141 -24
-121 -16 -127 134 -96 114 24 115 23 113 -103 -2 -88 0 -102 17 -118 19 -17
23 -16 106 18 129 54 134 52 156 -59 20 -106 29 -125 55 -125 14 0 59 23 101
50 42 28 84 50 94 50 12 0 27 -22 49 -72 67 -157 72 -159 176 -58 53 52 78 70
92 66 10 -3 42 -42 70 -86 75 -114 89 -111 185 35 18 27 40 51 48 53 9 1 48
-29 88 -68 101 -99 112 -96 167 30 27 63 46 96 58 98 10 2 53 -19 96 -47 118
-78 131 -72 156 72 9 50 21 87 31 94 17 12 34 7 158 -46 46 -20 50 -20 74 -5
24 16 24 18 18 104 -5 61 -4 96 4 110 13 24 24 24 159 -1 69 -13 74 -12 87 5
7 11 12 29 9 40 -2 12 -12 56 -21 99 -14 61 -15 80 -5 90 7 7 53 14 118 17
136 6 140 10 94 117 -19 43 -36 90 -38 105 -6 33 12 42 119 60 122 20 127 41
43 164 -25 37 -45 72 -45 79 0 19 18 30 108 65 71 27 102 50 102 75 0 3 -34
42 -76 86 -41 44 -74 85 -71 92 2 6 39 37 82 67 43 30 83 63 89 72 14 22 -10
49 -92 100 -95 61 -96 64 -7 158 41 45 75 87 75 94 0 18 -30 37 -105 66 -74
29 -105 48 -105 65 0 8 22 46 50 87 53 78 63 120 32 137 -10 5 -50 15 -88 22
-128 22 -132 28 -88 126 63 139 56 153 -75 153 -139 0 -140 1 -114 125 12 54
19 104 16 112 -9 23 -52 26 -134 8 -44 -9 -92 -14 -106 -10 l-25 6 7 104 c7
103 7 103 -18 120 -24 16 -29 15 -110 -20 -47 -20 -96 -35 -108 -33 -24 3 -32
25 -53 150 -4 20 -15 46 -24 59 -18 21 -19 21 -53 4 -19 -10 -58 -35 -88 -56
-82 -59 -93 -55 -130 44 -53 145 -68 149 -172 47 -41 -40 -79 -70 -88 -68 -9
2 -39 39 -68 82 -63 96 -73 104 -104 86z m86 -330 c30 -29 39 -64 25 -106 -39
-117 -200 -87 -200 37 0 22 10 41 35 66 32 32 40 35 76 30 23 -3 51 -15 64
-27z m-210 -240 c137 -134 139 -134 300 21 l80 76 62 -13 c131 -27 338 -124
464 -216 86 -62 251 -234 313 -325 l49 -72 -67 -153 c-36 -85 -66 -161 -66
-171 0 -46 23 -65 154 -127 72 -34 134 -67 138 -74 4 -6 8 -57 8 -113 l0 -103
-62 0 c-35 0 -69 -4 -76 -8 -7 -5 -16 -43 -21 -85 -10 -85 -26 -118 -74 -147
-59 -37 -191 -19 -216 29 -5 9 -17 46 -26 81 -27 103 -62 166 -128 230 l-60
59 29 22 c63 48 171 167 195 214 20 42 24 65 24 140 0 80 -4 97 -30 150 -38
75 -122 161 -201 202 -117 63 -123 63 -719 63 -297 0 -618 3 -713 7 l-173 6
53 54 c106 109 281 222 438 283 44 17 202 67 219 69 3 1 51 -44 106 -99z
m-1052 -700 c58 -46 51 -142 -12 -174 -38 -20 -64 -20 -101 -1 -62 32 -69 108
-16 161 41 41 89 46 129 14z m2495 -3 c27 -13 52 -55 52 -87 0 -37 -30 -81
-67 -96 -103 -44 -194 90 -113 166 42 39 73 43 128 17z m-2170 -414 l2 -413
-188 0 -189 0 -17 78 c-25 120 -37 260 -30 344 l6 76 110 49 c175 76 192 103
144 224 l-25 60 92 -3 92 -3 3 -412z m1096 383 c21 -11 47 -33 57 -50 37 -60
18 -111 -52 -146 -35 -18 -66 -21 -284 -27 l-245 -6 0 127 0 127 243 -3 c215
-3 246 -5 281 -22z m-99 -589 c42 -21 81 -65 100 -110 9 -21 31 -103 50 -183
37 -154 50 -186 97 -247 55 -70 60 -71 376 -75 155 -2 282 -7 282 -11 0 -3
-26 -34 -57 -69 l-58 -62 -41 10 c-111 26 -207 38 -235 28 -34 -12 -57 -68
-85 -207 -14 -69 -24 -97 -39 -107 -33 -21 -204 -73 -290 -88 -44 -8 -120 -17
-170 -21 -213 -15 -594 77 -610 148 -3 12 -14 63 -25 113 -24 112 -28 123 -53
152 -26 28 -57 28 -193 0 l-106 -21 -34 39 c-45 51 -68 84 -62 89 2 2 241 7
531 11 l527 7 -2 191 -3 191 -162 3 -163 2 0 114 c0 62 3 116 8 120 4 5 93 6
197 4 146 -4 197 -9 220 -21z m-856 -852 c57 -29 65 -119 15 -166 -19 -18 -37
-24 -70 -24 -56 0 -93 34 -101 93 -5 37 -2 45 30 77 39 39 78 45 126 20z
m1574 -25 c60 -67 17 -170 -72 -170 -91 0 -140 102 -81 166 50 53 107 54 153
4z"/>
</g>
</svg>
